HIERARCHY
ROOT Hips
{
	OFFSET -0.001795 -0.223333 0.028219
	CHANNELS 6 Xposition Yposition Zposition Zrotation Yrotation Xrotation 
	JOINT LeftUpLeg
	{
		OFFSET 0.069520 -0.091406 -0.006815
		CHANNELS 3 Zrotation Yrotation Xrotation
		JOINT LeftLeg
		{
			OFFSET 0.034277 -0.375199 -0.004496
			CHANNELS 3 Zrotation Yrotation Xrotation
			JOINT LeftFoot
			{
				OFFSET -0.013596 -0.397961 -0.043693
				CHANNELS 3 Zrotation Yrotation Xrotation
				JOINT LeftToe
				{
					OFFSET 0.026358 -0.055791 0.119288
					CHANNELS 3 Zrotation Yrotation Xrotation
					End Site
					{
						OFFSET 0.000000 0.000000 0.000000
					}
				}
			}
		}
	}
	JOINT RightUpLeg
	{
		OFFSET -0.067670 -0.090522 -0.004320
		CHANNELS 3 Zrotation Yrotation Xrotation
		JOINT RightLeg
		{
			OFFSET -0.038290 -0.382569 -0.008850
			CHANNELS 3 Zrotation Yrotation Xrotation
			JOINT RightFoot
			{
				OFFSET 0.015774 -0.398415 -0.042312
				CHANNELS 3 Zrotation Yrotation Xrotation
				JOINT RightToe
				{
					OFFSET -0.025372 -0.048144 0.123348
					CHANNELS 3 Zrotation Yrotation Xrotation
					End Site
					{
						OFFSET 0.000000 0.000000 0.000000
					}
				}
			}
		}
	}
	JOINT Spine
	{
		OFFSET -0.002533 0.108963 -0.026696
		CHANNELS 3 Zrotation Yrotation Xrotation
		JOINT Spine1
		{
			OFFSET 0.005487 0.135180 0.001092
			CHANNELS 3 Zrotation Yrotation Xrotation
			JOINT Spine2
			{
				OFFSET 0.001457 0.052922 0.025425
				CHANNELS 3 Zrotation Yrotation Xrotation
				JOINT Neck
				{
					OFFSET -0.002778 0.213870 -0.042857
					CHANNELS 3 Zrotation Yrotation Xrotation
					JOINT Head
					{
						OFFSET 0.005152 0.064970 0.051349
						CHANNELS 3 Zrotation Yrotation Xrotation
						End Site
						{
							OFFSET 0.000000 0.000000 0.000000
						}
					}
				}
				JOINT LeftShoulder
				{
					OFFSET 0.078845 0.121749 -0.034090
					CHANNELS 3 Zrotation Yrotation Xrotation
					JOINT LeftArm
					{
						OFFSET 0.090977 0.030469 -0.008868
						CHANNELS 3 Zrotation Yrotation Xrotation
						JOINT LeftForeArm
						{
							OFFSET 0.259612 -0.012772 -0.027456
							CHANNELS 3 Zrotation Yrotation Xrotation
							JOINT LeftHand
							{
								OFFSET 0.249234 0.008986 -0.001171
								CHANNELS 3 Zrotation Yrotation Xrotation
								End Site
								{
									OFFSET 0.000000 0.000000 0.000000
								}
							}
						}
					}
				}
				JOINT RightShoulder
				{
					OFFSET -0.081759 0.118833 -0.038615
					CHANNELS 3 Zrotation Yrotation Xrotation
					JOINT RightArm
					{
						OFFSET -0.096012 0.032551 -0.009143
						CHANNELS 3 Zrotation Yrotation Xrotation
						JOINT RightForeArm
						{
							OFFSET -0.253742 -0.013329 -0.021401
							CHANNELS 3 Zrotation Yrotation Xrotation
							JOINT RightHand
							{
								OFFSET -0.255298 0.007772 -0.005559
								CHANNELS 3 Zrotation Yrotation Xrotation
								End Site
								{
									OFFSET 0.000000 0.000000 0.000000
								}
							}
						}
					}
				}
			}
		}
	}
}
MOTION
Frames: 11
Frame Time: 0.050000
0.000000 0.947436 0.000000 0.043260 -0.487698 -3.725994 4.048844 0.359596 6.512141 -2.799156 0.275596 4.123054 10.674786 21.326930 15.440509 0.000000 0.000000 0.000000 -4.958701 -0.144258 3.949894 3.941313 -0.375699 7.717160 -8.928538 -21.356323 14.592455 0.000000 0.000000 0.000000 5.281407 -0.110778 1.525647 -2.746258 1.288052 -18.423041 -2.588876 4.225134 27.469930 6.010171 -1.060727 -27.378317 0.000000 0.000000 0.000000 0.368496 -34.174261 11.118410 -24.696625 -52.814096 5.220959 124.336217 -45.706757 -71.810814 0.000000 0.000000 0.000000 4.232836 23.982775 9.283365 43.653852 55.733160 16.068525 -143.554125 50.999632 -96.498787 0.000000 0.000000 0.000000 
-0.000096 0.946774 -0.000245 0.636624 -0.513294 -3.608121 3.682982 0.385451 6.551133 -3.292270 0.351233 3.801128 10.640562 21.279430 15.406441 0.000000 0.000000 0.000000 -5.912240 -0.064341 3.348067 4.474579 -0.465721 8.521454 -8.968807 -21.431644 14.240232 0.000000 0.000000 0.000000 5.128853 -0.172289 2.248382 -3.200057 1.420554 -18.717030 -2.444437 4.530064 26.941138 5.419094 -0.711142 -26.961205 0.000000 0.000000 0.000000 2.863669 -35.004912 10.712603 -24.171178 -56.365008 5.688457 120.954399 -46.121995 -68.874016 0.000000 0.000000 0.000000 4.852830 24.697998 9.732995 42.629983 55.423327 15.484820 -142.028739 49.083582 -91.641817 0.000000 0.000000 0.000000 
-0.000017 0.945684 -0.000229 0.477693 -0.512153 -3.394001 4.195047 0.331097 6.176245 -3.893253 0.438786 4.076591 10.687268 21.350809 15.009308 0.000000 0.000000 0.000000 -5.999870 -0.058405 3.361958 4.928513 -0.547091 8.110632 -8.969120 -21.436815 13.921210 0.000000 0.000000 0.000000 5.414810 -0.252838 3.073052 -3.960140 1.641495 -19.028322 -1.670737 4.327515 25.350768 5.969035 -1.146723 -25.951119 0.000000 0.000000 0.000000 3.046276 -35.026616 10.718359 -23.055709 -58.337457 5.669137 118.961018 -45.060904 -65.441993 0.000000 0.000000 0.000000 1.833157 23.850334 8.681797 43.710549 56.097711 16.569904 -141.420863 48.771130 -90.582328 0.000000 0.000000 0.000000 
-0.000005 0.945853 -0.000397 0.281939 0.179702 -4.100618 4.290084 0.369254 7.113846 -3.460868 0.369222 3.622642 10.279540 20.811337 14.677197 0.000000 0.000000 0.000000 -6.075903 -0.137892 4.606912 5.532111 -0.666112 7.442711 -9.140426 -21.685653 14.255536 0.000000 0.000000 0.000000 5.657006 -0.302113 3.688150 -4.084407 1.705802 -18.625452 -1.773094 3.974239 25.629461 5.654349 -0.880200 -26.623865 0.000000 0.000000 0.000000 4.302520 -37.407434 11.024249 -19.752442 -57.233918 4.004409 117.429709 -42.250099 -60.587383 0.000000 0.000000 0.000000 2.043423 25.252536 9.235974 42.448425 56.658813 16.243094 -140.743176 47.116714 -87.271148 0.000000 0.000000 0.000000 
-0.000031 0.946248 -0.000490 0.260540 0.354059 -4.576943 4.017806 0.403654 7.400219 -2.879753 0.281641 3.976761 10.203448 20.713413 14.729858 0.000000 0.000000 0.000000 -6.021079 -0.166495 4.914903 5.487144 -0.666666 7.844473 -9.188956 -21.756711 14.472326 0.000000 0.000000 0.000000 5.220065 -0.359916 4.587093 -4.116706 1.725428 -18.447755 -1.659624 3.561300 25.138703 5.359594 -0.877412 -25.618560 0.000000 0.000000 0.000000 4.683746 -37.177855 10.853644 -18.520390 -58.114953 3.627609 117.624464 -41.756120 -60.084091 0.000000 0.000000 0.000000 0.661479 25.616550 8.992744 42.433103 57.190194 16.545433 -140.873147 46.657685 -87.108099 0.000000 0.000000 0.000000 
0.000007 0.946032 -0.000504 0.147044 0.690882 -4.700311 4.208488 0.383633 7.388643 -2.905256 0.280339 4.155885 10.044744 20.501337 14.479205 0.000000 0.000000 0.000000 -5.867046 -0.196150 5.159792 5.503334 -0.676882 7.741020 -9.341016 -21.988949 14.562289 0.000000 0.000000 0.000000 4.926866 -0.340226 4.478633 -3.715792 1.617242 -18.106991 -1.762276 3.313917 25.287439 5.088457 -0.674532 -26.068463 0.000000 0.000000 0.000000 5.062785 -37.774596 10.901817 -16.661052 -59.003959 2.878730 118.348905 -39.875221 -58.282452 0.000000 0.000000 0.000000 -0.299922 26.511899 9.053105 42.511226 58.367668 17.228697 -138.724183 45.029888 -81.704461 0.000000 0.000000 0.000000 
0.000022 0.945809 -0.000579 -0.048308 1.090023 -4.395964 4.530263 0.333427 7.062068 -3.010164 0.292408 4.035412 9.868413 20.260244 14.184930 0.000000 0.000000 0.000000 -5.845559 -0.191600 4.942128 5.950791 -0.764785 7.618603 -9.523304 -22.256836 14.724303 0.000000 0.000000 0.000000 4.616966 -0.305679 4.114404 -3.537486 1.571179 -18.101387 -1.702070 2.819898 25.265500 4.819485 -0.497155 -26.634114 0.000000 0.000000 0.000000 4.879512 -37.852456 10.989583 -16.389156 -59.710632 2.876625 118.265278 -39.834263 -58.001850 0.000000 0.000000 0.000000 -0.640959 27.567578 9.319089 39.744607 59.027254 16.047524 -135.982770 43.748239 -76.467362 0.000000 0.000000 0.000000 
0.000001 0.945467 -0.000640 -0.093248 1.144741 -4.115729 4.682992 0.291857 6.491681 -3.195066 0.314674 4.477308 9.893577 20.294160 14.051325 0.000000 0.000000 0.000000 -5.751702 -0.192462 4.914716 5.911898 -0.751955 7.141084 -9.566843 -22.328669 14.621927 0.000000 0.000000 0.000000 4.185789 -0.298802 4.143875 -3.290405 1.493987 -18.357956 -1.539125 2.683709 25.155635 4.448130 -0.220697 -27.403554 0.000000 0.000000 0.000000 4.607585 -37.528857 10.992345 -16.447559 -59.812795 2.936495 119.503192 -40.979031 -60.643243 0.000000 0.000000 0.000000 -0.912160 28.182648 9.454318 38.655274 59.958706 15.888378 -135.117625 44.394912 -76.581447 0.000000 0.000000 0.000000 
-0.000048 0.945429 -0.000750 -0.101792 0.799304 -4.355633 4.811365 0.311547 6.875055 -3.460025 0.358713 4.346532 10.024101 20.469961 14.157789 0.000000 0.000000 0.000000 -5.613622 -0.215792 5.299220 5.595955 -0.686128 6.838163 -9.387675 -22.063388 14.438397 0.000000 0.000000 0.000000 4.002538 -0.317300 4.508836 -3.252251 1.475926 -18.283779 -1.344855 2.752085 25.086698 4.392152 -0.191157 -27.594598 0.000000 0.000000 0.000000 4.876648 -37.439518 10.892347 -16.918081 -59.779238 3.199563 120.606222 -41.766445 -62.720280 0.000000 0.000000 0.000000 -1.507698 28.663897 9.437383 38.504829 61.014515 16.287743 -134.123635 44.282410 -75.354981 0.000000 0.000000 0.000000 
-0.000112 0.945127 -0.000826 -0.233603 0.349241 -4.497312 4.933778 0.326815 7.133167 -3.513821 0.372154 4.283291 10.256773 20.788580 14.207937 0.000000 0.000000 0.000000 -5.450060 -0.220409 5.353913 5.457525 -0.653879 6.902543 -9.180865 -21.751999 14.194114 0.000000 0.000000 0.000000 3.476953 -0.311241 4.699471 -2.767472 1.318842 -18.332543 -0.978873 3.098667 25.084477 4.158040 0.040447 -28.497958 0.000000 0.000000 0.000000 3.934612 -37.379968 11.154683 -18.683827 -59.216142 3.978305 122.882296 -43.766020 -67.697486 0.000000 0.000000 0.000000 -1.232930 29.695915 9.848627 39.018442 60.825798 16.518638 -134.193225 44.931862 -76.417829 0.000000 0.000000 0.000000 
-0.000161 0.944786 -0.000824 -0.494144 0.468721 -4.502179 5.253261 0.298983 7.054466 -3.532899 0.372815 4.407226 10.227599 20.752968 13.977991 0.000000 0.000000 0.000000 -5.178387 -0.234546 5.265788 5.521342 -0.669734 7.096256 -9.253007 -21.862321 14.217616 0.000000 0.000000 0.000000 3.101458 -0.309170 4.854940 -2.277799 1.174505 -18.354609 -0.839051 3.015420 24.990443 3.958373 0.189418 -28.935134 0.000000 0.000000 0.000000 3.000240 -36.805197 11.260133 -21.468325 -58.697979 5.223660 125.665621 -45.448672 -72.866475 0.000000 0.000000 0.000000 -0.753729 29.996931 10.089477 39.055591 59.773335 16.058665 -135.358304 45.357645 -78.498456 0.000000 0.000000 0.000000 
